<?xml version="1.0" standalone="no"?>
<!DOCTYPE svg PUBLIC "-//W3C//DTD SVG 1.1//EN" "http://www.w3.org/Graphics/SVG/1.1/DTD/svg11.dtd" >
<svg xmlns="http://www.w3.org/2000/svg">
<metadata>Generated by IcoMoon</metadata>
<defs>
<font id="icomoon" horiz-adv-x="1024">
<font-face units-per-em="1024" ascent="960" descent="-64" />
<missing-glyph horiz-adv-x="1024" />
<glyph unicode="&#x20;" horiz-adv-x="512" d="" />
<glyph unicode="&#xe900;" glyph-name="settings, cog, preferences" d="M972.512 554.24l-98.048 19.648c-4.928 14.176-10.752 27.936-17.184 41.248l55.552 83.328c16.928 25.376 13.568 59.2-8 80.736l-61.568 61.568c-12.384 12.384-28.736 18.752-45.312 18.752-12.256 0-24.64-3.52-35.424-10.752l-83.328-55.52c-13.376 6.464-27.136 12.224-41.312 17.152l-19.648 98.080c-5.952 29.952-32.256 51.456-62.752 51.456h-87.040c-30.496 0-56.768-21.536-62.752-51.456l-19.648-98.080c-14.176-4.928-27.936-10.72-41.248-17.152l-83.296 55.52c-10.848 7.232-23.2 10.752-35.488 10.752-16.544 0-32.896-6.368-45.28-18.752l-61.536-61.568c-21.568-21.568-24.928-55.36-8-80.736l55.52-83.328c-6.464-13.344-12.224-27.104-17.152-41.28l-98.112-19.616c-29.92-5.984-51.456-32.256-51.456-62.752v-87.040c0-30.496 21.536-56.8 51.456-62.752l98.080-19.68c4.928-14.176 10.72-27.936 17.152-41.248l-55.488-83.328c-16.928-25.376-13.568-59.2 8-80.736l61.568-61.568c12.384-12.384 28.736-18.752 45.28-18.752 12.288 0 24.672 3.552 35.456 10.752l83.328 55.552c13.344-6.496 27.104-12.256 41.28-17.184l19.616-98.048c5.984-29.952 32.256-51.488 62.752-51.488h87.040c30.496 0 56.8 21.568 62.752 51.488l19.68 98.048c14.176 4.928 27.936 10.752 41.248 17.184l83.328-55.552c10.816-7.2 23.2-10.752 35.424-10.752 16.576 0 32.928 6.368 45.312 18.752l61.568 61.568c21.568 21.568 24.928 55.36 8 80.736l-55.552 83.328c6.496 13.376 12.256 27.136 17.184 41.312l98.048 19.616c29.92 5.92 51.488 32.256 51.488 62.752v87.040c0 30.496-21.568 56.768-51.488 62.752zM861.888 384.8c-22.24-4.448-40.448-20.32-47.872-41.76-4.128-11.808-8.928-23.264-14.304-34.368-9.952-20.448-8.256-44.576 4.32-63.424l55.552-83.328-61.568-61.568-83.328 55.552c-10.688 7.136-23.072 10.752-35.488 10.752-9.504 0-19.072-2.112-27.872-6.368-11.136-5.376-22.56-10.24-34.432-14.368-21.376-7.424-37.248-25.632-41.696-47.872l-19.68-98.112h-87.040l-19.616 98.112c-4.448 22.24-20.32 40.448-41.728 47.872-11.808 4.128-23.296 8.928-34.4 14.304-8.832 4.32-18.368 6.432-27.904 6.432-12.448 0-24.8-3.616-35.488-10.752l-83.328-55.552-61.568 61.568 55.52 83.328c12.576 18.88 14.208 43.008 4.384 63.36-5.376 11.136-10.208 22.56-14.336 34.432-7.424 21.376-25.664 37.248-47.872 41.696l-98.080 19.68-0.064 87.072 98.112 19.616c22.208 4.448 40.448 20.32 47.872 41.728 4.128 11.808 8.896 23.296 14.304 34.4 9.92 20.416 8.256 44.544-4.352 63.392l-55.488 83.328 61.536 61.568 83.328-55.52c10.688-7.136 23.072-10.752 35.488-10.752 9.504 0 19.040 2.112 27.872 6.368 11.104 5.376 22.56 10.208 34.4 14.336 21.408 7.424 37.28 25.664 41.728 47.872l19.648 98.080 87.040 0.032 19.616-98.112c4.448-22.208 20.32-40.448 41.76-47.872 11.808-4.128 23.264-8.896 34.368-14.304 8.864-4.288 18.368-6.4 27.936-6.4 12.448 0 24.8 3.616 35.488 10.752l83.328 55.52 61.568-61.568-55.552-83.328c-12.576-18.88-14.176-42.976-4.384-63.36 5.376-11.104 10.24-22.56 14.368-34.4 7.424-21.408 25.632-37.28 47.872-41.728l98.048-19.648 0.096-87.040-98.112-19.648zM512 671.968c-123.68 0-224-100.32-224-224 0-123.712 100.32-224 224-224s224 100.32 224 224c0 123.68-100.32 224-224 224zM512 251.936c-108.224 0-196 87.808-196 196 0 108.224 87.776 196 196 196 108.192 0 196-87.776 196-196 0-108.192-87.808-196-196-196zM512 575.968c-70.72 0-128-57.28-128-128 0-70.688 57.28-128 128-128 70.688 0 128 57.312 128 128s-57.312 128-128 128zM512 351.936c-52.992 0-96 43.008-96 96s43.008 96 96 96 96-43.008 96-96c0-52.992-43.008-96-96-96z" />
<glyph unicode="&#xe901;" glyph-name="github" d="M512.008 949.396c-282.738 0-512.008-229.218-512.008-511.998 0-226.214 146.704-418.132 350.136-485.836 25.586-4.738 34.992 11.11 34.992 24.632 0 12.204-0.48 52.542-0.696 95.324-142.448-30.976-172.504 60.41-172.504 60.41-23.282 59.176-56.848 74.916-56.848 74.916-46.452 31.778 3.51 31.124 3.51 31.124 51.4-3.61 78.476-52.766 78.476-52.766 45.672-78.27 119.776-55.64 149.004-42.558 4.588 33.086 17.852 55.68 32.506 68.464-113.73 12.942-233.276 56.85-233.276 253.032 0 55.898 20.004 101.574 52.76 137.428-5.316 12.9-22.854 64.972 4.952 135.5 0 0 43.006 13.752 140.84-52.49 40.836 11.348 84.636 17.036 128.154 17.234 43.502-0.198 87.336-5.886 128.256-17.234 97.734 66.244 140.656 52.49 140.656 52.49 27.872-70.528 10.35-122.6 5.036-135.5 32.82-35.856 52.694-81.532 52.694-137.428 0-196.654-119.778-239.95-233.79-252.624 18.364-15.89 34.724-47.046 34.724-94.812 0-68.508-0.596-123.644-0.596-140.508 0-13.628 9.222-29.594 35.172-24.566 203.322 67.776 349.844 259.626 349.844 485.77 0 282.78-229.234 511.998-511.992 511.998z" />
<glyph unicode="&#xe902;" glyph-name="education" d="M582.051 473.921c3.017-5.901 9.020-9.31 15.227-9.31 2.592 0 5.251 0.597 7.725 1.858 1.005 0.512 101.374 51.498 150.875 67.133 8.97 2.848 13.948 12.431 11.1 21.4-2.832 8.97-12.345 13.966-21.4 11.134-52.145-16.49-151.83-67.133-156.059-69.281-8.391-4.262-11.732-14.529-7.47-22.934zM597.278 669.23c2.592 0 5.251 0.597 7.725 1.858 1.005 0.512 101.374 51.498 150.875 67.133 8.97 2.848 13.948 12.431 11.1 21.4-2.832 8.97-12.345 13.966-21.4 11.134-52.145-16.49-151.83-67.133-156.059-69.281-8.389-4.262-11.732-14.527-7.47-22.934 3.017-5.899 9.020-9.31 15.227-9.31zM1006.506 703.335c-9.43 0-17.051-7.639-17.051-17.051v-665.022c0-28.204-22.952-51.156-51.156-51.156h-409.245v39.236c24.863 8.697 89.624 28.971 153.467 28.971 148.539 0 249.401-32.894 250.406-33.233 5.132-1.705 10.863-0.853 15.347 2.354 4.45 3.205 7.076 8.355 7.076 13.83v750.278c0 7.997-5.541 14.921-13.352 16.644 0 0-13.368 2.983-36.219 7.18-9.226 1.705-18.142-4.434-19.849-13.676-1.705-9.276 4.416-18.16 13.676-19.865 8.714-1.603 16.012-3.017 21.639-4.144v-713.755c-38.641 10.129-124.444 28.493-238.726 28.493-74.295 0-147.276-24.401-169.855-32.672-20.071 8.866-80.739 32.672-154.132 32.672-117.454 0-214.206-19.371-255.778-29.211v715.138c34.053 8.373 134.625 30.25 255.778 30.25 62.172 0 115.492-19.353 136.416-28.102v-671.025c0-6.139 3.307-11.818 8.645-14.835 5.337-3.035 11.92-2.949 17.189 0.222 1.689 1.005 170.638 101.919 320.591 151.898 6.974 2.336 11.664 8.832 11.664 16.182v699.127c0 5.593-2.746 10.829-7.35 14.016-4.57 3.189-10.435 3.923-15.704 1.96-136.431-51.172-274.482-137.079-275.864-137.932-7.981-4.996-10.419-15.517-5.423-23.498 4.98-7.981 15.501-10.419 23.498-5.423 1.261 0.801 121.358 75.522 246.739 125.945v-661.987c-116.397-40.447-237.925-106.489-289.882-136.056v652.455c0 6.462-3.649 12.363-9.43 15.261-2.933 1.449-72.81 35.895-161.088 35.895-154.080 0-272.539-33.337-277.519-34.768-7.316-2.080-12.363-8.782-12.363-16.388v-750.282c0-5.337 2.524-10.385 6.77-13.608 3.001-2.268 6.616-3.445 10.283-3.445 1.569 0 3.137 0.222 4.672 0.665 1.177 0.324 119.090 33.439 268.157 33.439 62.342 0 115.611-19.405 136.416-28.118v-40.089h-409.245c-28.204 0-51.156 22.952-51.156 51.156v665.022c0 9.412-7.639 17.051-17.051 17.051s-17.051-7.639-17.051-17.051v-665.022c0-47.012 38.247-85.26 85.26-85.26h852.593c47.012 0 85.26 38.247 85.26 85.26v665.022c-0.002 9.414-7.623 17.053-17.053 17.053zM582.051 576.232c3.017-5.901 9.020-9.31 15.227-9.31 2.592 0 5.251 0.597 7.725 1.858 1.005 0.512 101.374 51.498 150.875 67.133 8.97 2.848 13.948 12.431 11.1 21.4-2.832 8.97-12.345 13.966-21.4 11.134-52.145-16.49-151.83-67.133-156.059-69.281-8.391-4.262-11.732-14.529-7.47-22.934zM582.051 371.61c3.017-5.901 9.020-9.31 15.227-9.31 2.592 0 5.251 0.597 7.725 1.858 1.005 0.512 101.374 51.498 150.875 67.133 8.97 2.848 13.948 12.431 11.1 21.4-2.832 8.97-12.345 13.966-21.4 11.134-52.145-16.49-151.83-67.133-156.059-69.281-8.391-4.262-11.732-14.529-7.47-22.934zM413.58 642.663c-105.294 24.709-224.948-6.77-229.978-8.117-9.088-2.438-14.494-11.782-12.056-20.888 2.046-7.621 8.934-12.635 16.456-12.635 1.467 0 2.949 0.188 4.434 0.58 1.143 0.324 116.345 30.626 213.37 7.861 9.122-2.132 18.348 3.547 20.496 12.721 2.146 9.156-3.549 18.33-12.723 20.478zM413.58 540.352c-105.294 24.691-224.948-6.77-229.978-8.117-9.088-2.438-14.494-11.784-12.056-20.888 2.046-7.621 8.934-12.635 16.456-12.635 1.467 0 2.949 0.188 4.434 0.58 1.143 0.324 116.345 30.626 213.37 7.861 9.122-2.132 18.348 3.547 20.496 12.721 2.146 9.156-3.549 18.33-12.723 20.478zM582.051 269.298c3.017-5.901 9.020-9.31 15.227-9.31 2.592 0 5.251 0.597 7.725 1.858 1.005 0.512 101.374 51.498 150.875 67.133 8.97 2.848 13.948 12.431 11.1 21.4-2.832 8.968-12.345 13.966-21.4 11.134-52.145-16.49-151.83-67.133-156.059-69.281-8.391-4.262-11.732-14.529-7.47-22.934zM413.58 438.042c-105.294 24.691-224.948-6.752-229.978-8.117-9.088-2.438-14.494-11.784-12.056-20.888 2.046-7.621 8.934-12.653 16.456-12.653 1.467 0 2.949 0.204 4.434 0.597 1.143 0.324 116.345 30.626 213.37 7.861 9.122-2.132 18.348 3.547 20.496 12.721 2.146 9.156-3.549 18.33-12.723 20.478zM413.58 233.42c-105.294 24.709-224.948-6.77-229.978-8.117-9.088-2.438-14.494-11.784-12.056-20.888 2.046-7.621 8.934-12.653 16.456-12.653 1.467 0 2.949 0.204 4.434 0.597 1.143 0.324 116.345 30.626 213.37 7.861 9.122-2.114 18.348 3.547 20.496 12.721 2.146 9.156-3.549 18.33-12.723 20.478zM413.58 335.731c-105.294 24.709-224.948-6.752-229.978-8.117-9.088-2.438-14.494-11.784-12.056-20.888 2.046-7.621 8.934-12.653 16.456-12.653 1.467 0 2.949 0.204 4.434 0.597 1.143 0.324 116.345 30.626 213.37 7.861 9.122-2.132 18.348 3.547 20.496 12.721 2.146 9.156-3.549 18.33-12.723 20.478z" />
<glyph unicode="&#xe903;" glyph-name="calendar" d="M972.8 891.734h-119.466v51.2c0 9.438-7.63 17.068-17.068 17.068h-119.466c-9.438 0-17.068-7.628-17.068-17.068v-51.2h-375.466v51.2c0 9.438-7.63 17.068-17.068 17.068h-119.466c-9.438 0-17.068-7.628-17.068-17.068v-51.2h-119.466c-9.438 0-17.068-7.63-17.068-17.068v-921.598c0-9.438 7.628-17.068 17.068-17.068h921.6c9.438 0 17.068 7.63 17.068 17.068v921.6c0 9.438-7.63 17.068-17.068 17.068zM733.866 925.866h85.332v-102.4h-85.332v102.4zM204.8 925.866h85.334v-102.4h-85.332v102.4zM68.266 857.6h102.4v-51.2c0-9.438 7.628-17.068 17.068-17.068h119.468c9.438 0 17.068 7.628 17.068 17.068v51.2h375.466v-51.2c0-9.438 7.63-17.068 17.068-17.068h119.466c9.438 0 17.068 7.628 17.068 17.068v51.2h102.4v-153.6h-887.466v153.6zM68.266-29.866v699.732h887.466v-699.732h-887.466zM648.534 567.466h-460.8v-494.932h648.532v494.932h-187.732zM529.068 533.334h119.466v-119.468h-119.466v119.466zM648.534 260.268h-119.466v119.466h119.466v-119.466zM375.466 379.732h119.466v-119.466h-119.466v119.466zM375.466 533.334h119.466v-119.468h-119.466v119.466zM221.866 533.334h119.468v-119.468h-119.466v119.466zM221.866 379.732h119.468v-119.466h-119.466v119.466zM341.334 106.668h-119.466v119.466h119.466v-119.466zM494.932 106.668h-119.466v119.466h119.466v-119.466zM648.534 106.668h-119.466v119.466h119.466v-119.466zM802.134 106.668h-119.466v119.466h119.466v-119.466zM802.134 260.268h-119.466v119.466h119.466v-119.466zM802.134 533.334v-119.468h-119.466v119.466h119.466z" />
<glyph unicode="&#xe904;" glyph-name="Cross" d="M463.328 446.283l-450.496-450.496c-12.516-12.516-12.516-32.792 0-45.307 6.25-6.266 14.456-9.383 22.646-9.383 8.206 0 16.396 3.117 22.646 9.383l453.883 453.883 453.883-453.883c6.266-6.266 14.456-9.383 22.646-9.383s16.396 3.117 22.646 9.383c12.516 12.516 12.516 32.792 0 45.307l-450.48 450.496 450.782 450.814c12.516 12.516 12.516 32.792 0 45.307-12.516 12.5-32.792 12.5-45.291 0l-454.169-454.201-454.217 454.185c-12.516 12.5-32.776 12.5-45.291 0-12.516-12.516-12.516-32.792 0-45.307l450.814-450.798z" />
<glyph unicode="&#xe905;" glyph-name="down-chevron" d="M512 175.28l-442.239 440.799-69.761-69.988 512-510.335 512 510.335-69.761 69.988zM1024 790.256l-69.761 69.988-442.239-440.799-442.239 440.799-69.761-69.988 512-510.335z" />
<glyph unicode="&#xe906;" glyph-name="Edit" d="M791.397 803.244c13.648 0 24.716 11.066 24.716 24.716v77.986c0 29.804-24.234 54.054-54.028 54.054h-522.878c-6.554 0-12.84-2.606-17.478-7.24l-204.75-204.75c-4.634-4.634-7.24-10.922-7.24-17.476v-740.478c0.002-29.806 24.25-54.056 54.056-54.056h698.288c29.794 0 54.028 24.25 54.028 54.054v377.368c0.002 13.648-11.064 24.716-24.714 24.716-13.648 0-24.716-11.066-24.716-24.716v-377.368c0-2.548-2.062-4.622-4.594-4.622h-698.29c-2.548 0-4.622 2.074-4.622 4.622v715.76h150.72c29.796 0 54.032 24.24 54.032 54.034v150.72h498.158c2.534 0 4.594-2.074 4.594-4.622v-77.986c0-13.65 11.068-24.716 24.718-24.716zM214.495 759.85c0-2.538-2.064-4.602-4.6-4.602h-115.756l120.356 120.36v-115.758zM981.655 759.208l-29.082 29.078c-32.608 32.608-85.664 32.604-118.276 0l-230.846-230.846h-400.408c-13.65 0-24.716-11.066-24.716-24.716s11.066-24.716 24.716-24.716h350.976l-148.758-148.758h-202.218c-13.65 0-24.716-11.066-24.716-24.716s11.066-24.716 24.716-24.716h152.784l-0.398-0.398c-3.016-3.016-5.196-6.758-6.338-10.866l-38.176-137.494h-107.872c-13.65 0-24.716-11.066-24.716-24.716s11.066-24.716 24.716-24.716h126.664c0.002 0 5.418 0.612 6.214 0.82 0.13 0.034 155.994 43.284 155.994 43.284 4.108 1.14 7.852 3.324 10.866 6.338l478.876 478.87c32.604 32.604 32.604 85.66-0.002 118.268zM365.213 171.854l20.174 72.652 52.48-52.48-72.654-20.172zM485.305 214.496l-77.442 77.442 395.296 395.296 77.444-77.442-395.298-395.296zM946.699 675.892l-31.142-31.142-77.444 77.444 31.142 31.142c13.338 13.336 35.034 13.334 48.362 0l29.082-29.082c13.334-13.334 13.334-35.030 0-48.362z" />
<glyph unicode="&#xe907;" glyph-name="environment" d="M374.798 468.74c4.892 0 9.998 0.426 14.892 1.062 33.182 4.68 61.686 24.674 85.086 59.132 58.708-106.992 79.128-191.228 79.554-192.718 2.128-9.148 10.21-15.954 19.784-16.378h1.062c9.148 0 17.23 5.744 20.206 14.464 15.74 42.116 36.586 82.106 61.9 119.118 24.888-47.436 56.582-63.388 80.192-67.856 5.956-1.062 11.912-1.702 18.082-1.702 34.246 0 70.832 17.654 101.038 49.136 55.73 58.496 76.364 218.456 38.712 300.138-4.892 10.634-17.654 15.314-28.292 10.21-1.278-0.638-2.552-1.49-3.828-2.34-38.5-28.93-73.386-37.864-110.184-47.222-31.908-8.084-64.452-16.592-97.634-38.288-37.436-24.888-59.77-60.836-59.77-96.572 0-19.358 6.596-45.734 32.97-72.108-18.93-26.378-35.736-54.242-49.988-83.384-19.996 56.582-45.308 111.036-75.3 163.15 49.562 25.312 79.768 58.922 89.126 99.974 14.464 62.538-23.61 119.332-47.436 147.41-39.99 47.222-96.784 60.836-156.982 75.3-53.178 12.762-108.27 25.95-153.366 64.24-4.892 4.254-11.486 5.956-17.868 4.68s-11.7-5.318-14.676-10.85c-58.922-111.248-28.716-323.11 36.8-400.324 42.334-50.622 91.044-78.274 135.928-78.274zM678.978 619.978c27.014 17.868 54.88 25.1 84.658 32.758 30.844 7.87 65.090 16.806 101.464 38.5 19.784-75.086-2.34-190.164-39.35-228.878-19.784-20.634-51.052-40.628-80.192-35.098-29.778 5.744-48.284 37.436-58.496 62.962-0.214 0.214-0.424 0.638-0.638 0.85 24.462 28.292 53.818 54.242 88.914 71.686 10.634 5.106 14.89 17.868 9.786 28.502s-17.868 14.892-28.504 9.786c0 0-0.214 0-0.214-0.214-40.202-19.996-73.386-49.136-101.038-80.83-9.786 10.848-17.23 23.824-17.23 38.714-0.002 21.48 15.312 44.454 40.838 61.26zM229.306 903.738c47.646-32.12 100.826-44.884 148.686-56.37 55.518-13.186 103.378-24.674 134.646-61.262 31.908-37.65 45.946-77.854 38.5-110.398-6.596-28.928-30.206-53.39-69.77-72.962-46.798 74.662-103.802 142.306-169.32 201.014-8.51 8.082-22.12 7.658-29.992-1.062-8.084-8.508-7.658-22.122 1.062-29.992 0.214-0.214 0.426-0.426 0.85-0.638 72.108-64.45 126.564-135.498 166.978-201.228-18.93-35.31-41.264-55.306-67.004-58.922-33.608-4.892-75.514 18.506-112.526 61.9-52.324 61.476-78.704 228.882-42.116 329.918zM1018.68 169.24c-1.062 2.34-2.34 4.254-3.828 5.744l-4.892 4.892c-42.33 42.542-65.728 65.942-122.098 49.774l-185.91-52.114c0 1.278 0.214 2.552 0.214 4.042 0 37.012-23.61 74.448-68.706 74.448-32.332 0-55.942 0-75.938-0.214-29.568 0-51.050-0.214-81.258 0l-4.466 4.254c-23.186 22.336-61.9 59.56-153.79 59.56h-105.292v21.272c0 11.7-9.572 21.272-21.272 21.272h-170.17c-11.7 0-21.272-9.572-21.272-21.272v-319.068c0-11.7 9.572-21.272 21.272-21.272h170.17c11.7 0 21.272 9.572 21.272 21.272v9.786c39.14-13.188 73.6-25.312 104.018-35.948 108.484-38.076 169.746-59.134 226.752-59.134 71.472 0 136.136 33.182 278.654 107.846 49.774 26.164 111.886 58.496 187.188 96.358 10.422 5.318 14.678 18.082 9.358 28.504zM170.17 43.316h-127.626v276.524h127.626v-276.524zM801.928 82.242c-241.854-126.776-241.854-126.776-471.37-46.37-33.822 11.912-72.962 25.526-117.842 40.626v200.8h104.868c74.45 0 104.44-28.716 124.012-47.648 4.68-4.466 8.722-8.51 12.762-11.486 3.616-2.976 8.296-4.466 12.976-4.466 34.46-0.214 57.218-0.214 89.34-0.214 19.996 0 44.246 0.214 76.79 0.214 25.312 0 26.164-28.716 26.164-31.908 0.214-8.294-2.34-16.592-7.232-23.398-4.466-5.744-11.486-8.934-18.93-8.51h-228.67c-10.634 0-20.206-7.658-21.698-18.082-1.914-13.188 8.296-24.462 21.058-24.462h229.092c18.93-0.424 37.012 7.444 49.562 21.91 1.062 0 2.34 0 3.404 0.214l212.712 59.56c27.014 7.658 36.586 4.042 64.452-23.186-64.028-32.334-117.418-60.412-161.448-83.596z" />
<glyph unicode="&#xe908;" glyph-name="cultural" d="M353.496 594.378v0l-0.026 0.056zM212.684 316.538v-0.026l0.188 0.902zM419.612 497.962l0.028 0.122 0.174 0.834zM472.522 187.728l0.042 0.136zM714.106 542.316c-44.666 0-80.842-36.19-80.842-80.842s36.178-80.842 80.842-80.842c44.652 0 80.842 36.19 80.842 80.842s-36.19 80.842-80.842 80.842zM714.106 421.052c-22.286 0-40.422 18.136-40.422 40.422s18.136 40.422 40.422 40.422c22.286 0 40.422-18.136 40.422-40.422s-18.136-40.422-40.422-40.422zM512 960c-77.178 0-150.204-17.312-215.822-47.912-31.474 29.602-74.076 47.912-121.018 47.912-96.582 0-175.158-77.070-175.158-171.79 0-35.624 21.814-80.52 48.734-122.476-31.124-66.1-48.734-139.828-48.734-217.732 0-282.76 229.2-512.002 511.998-512.002s511.998 229.242 511.998 511.998-229.198 512.002-511.998 512.002zM40.424 788.21c0 72.584 60.348 131.368 134.736 131.368 74.402 0 134.736-58.786 134.736-131.368 0-72.542-134.736-218.948-134.736-218.948s-134.736 146.406-134.736 218.948zM40.42 448.008c0.002 63.184 12.6 123.464 35.262 178.586 29.602-40.26 59.054-73.094 69.74-84.696l29.736-32.324 29.736 32.324c24.292 26.382 145.42 162.264 145.42 246.312 0 33.71-10.090 65.092-27.256 91.648 32.472 14.27 66.828 25.006 102.602 31.678l-10.956-19.698c-5.294-9.592-7.264-19.886-7.316-30.046 0.11-12.786 3.098-25.68 11.048-37.026l-0.026 0.026 30.732-43.17c1.684-2.29 3.934-7.018 5.404-12.274 1.508-5.254 2.358-11.116 2.344-15.684 0.014-2.074-0.174-3.894-0.404-5.188l0.014 0.042-7.978-43.466c-0.43-2.898-2.964-8.582-6.708-13.298-3.638-4.796-8.514-8.662-11.21-9.808l-54.042-24.94c-17.286-8.042-27.406-25.128-27.406-42.954 0-6.534 1.388-13.298 4.324-19.672l22.812-49.662c1.186-2.532 2.546-6.938 3.45-11.844 0.916-4.906 1.414-10.348 1.414-15.238 0-4.324-0.418-8.272-0.998-10.778l-0.268-1.092-6.212-26.976c-0.66-3.246-3.572-9.35-7.586-14.498-3.934-5.228-9.082-9.606-12.032-11.088l-39.924-21.182c-2.048-1.16-6.696-2.384-11.614-2.332-5.942-0.094-12.112 1.78-14.418 3.408l-32.66 21.032c-10.846 6.858-22.852 9.418-34.762 9.498-10.96-0.068-22.082-2.262-32.316-8.246l-32.708-19.358c-6.292-3.704-11.602-8.824-15.306-14.97-3.692-6.13-5.714-13.258-5.7-20.412-0.054-10.752 4.528-21.33 12.18-29.198l-0.026 0.026 18.31-19.104c1.658-1.67 4.108-5.536 5.74-10.078 1.658-4.512 2.574-9.674 2.546-13.54 0.014-1.63-0.148-3.058-0.364-4.15l-3.652-17.49c-0.808-4.138-3.692-11.412-7.518-17.948-3.734-6.576-8.598-12.72-11.762-15.494l-16.56-14.848c-11.020-9.932-25.264-24.792-35.422-36.768-36.726 67.158-57.704 144.146-57.704 225.958zM379.232 75.184l-21.152-72.826c-97.686 33.832-180.928 98.816-237.65 183.162 1.832 2.264 3.798 4.716 5.888 7.276 7.978 9.902 24.428 27.162 34.29 35.962l16.546 14.848c7.856 7.114 14.282 15.9 19.806 25.396 5.442 9.538 9.822 19.508 12.060 29.858l3.678 17.678c0.82 4.056 1.186 8.138 1.186 12.234-0.014 9.418-1.844 18.662-5.026 27.432-3.234 8.744-7.732 17.030-14.498 24.146l-18.352 19.146-0.714 0.97 0.97 0.794 32.77 19.376c1.954 1.254 6.708 2.642 11.682 2.588 5.39 0.068 10.766-1.576 12.894-3.072l32.634-21.020c11.292-7.128 23.836-9.754 36.31-9.848 10.348 0.054 20.762 1.912 30.558 7.034l39.924 21.182c10.158 5.484 18.258 13.312 25.154 22.176 6.792 8.96 12.26 18.824 14.916 30.046l6.522 28.348c1.402 6.372 1.954 12.88 1.968 19.564-0.014 7.518-0.728 15.17-2.102 22.596-1.388 7.438-3.368 14.592-6.454 21.356l-22.864 49.772-0.578 2.68c0 2.614 1.522 5.2 3.92 6.252l54.058 24.94c10.752 5.068 19.198 12.826 26.178 21.734 6.898 8.986 12.302 19.104 14.524 30.788l7.992 43.496c0.756 4.138 1.050 8.272 1.066 12.396-0.026 9.014-1.428 18.082-3.92 26.798-2.532 8.718-6.024 17.058-11.346 24.59l-30.734 43.182c-1.686 2.128-3.624 7.922-3.53 13.526-0.042 4.418 1.104 8.53 2.21 10.388l25.506 45.838c12.072 0.97 24.198 1.618 36.488 1.618 234.416 0 429.366-171.95 465.502-396.34l-18.054 10.038c-7.478 4.124-15.548 6.818-23.998 8.772-8.448 1.912-17.138 2.978-25.654 2.99-4.634 0-9.202-0.31-13.784-1.118l-3.734-0.66c-34.11 63.526-101.154 106.844-178.17 106.844-111.44 0-202.104-90.664-202.104-202.104 0-68.11 66.87-166.56 118.406-232.326l-30.842-34.682c-1.844-2.184-6.548-5.604-11.924-7.842-5.322-2.344-11.318-3.598-14.902-3.544l-1.28 0.042-58.922 4.54-1.482 0.324-0.068 0.026v0.202l0.188 1.212 0.054 0.148 10.51 35.018c1.482 4.972 2.116 9.958 2.116 14.796-0.026 9.592-2.438 18.768-6.708 27.056-4.286 8.246-10.552 15.764-19.146 21.194l-23.632 14.766c-8.098 5.052-17.154 7.358-25.964 7.344-15.010-0.026-30.034-6.548-39.95-19.644l-71.638-95.516c-6.334-8.42-9.406-18.446-9.406-28.228-0.014-14.24 6.482-28.51 18.836-37.792l26.206-19.644c1.44-1.038 3.53-3.476 4.958-6.67 1.482-3.152 2.304-6.938 2.278-9.848 0.002-1.544-0.214-2.84-0.47-3.754zM875.792 447.986c0-89.264-161.684-269.46-161.684-269.46s-161.684 180.198-161.684 269.46c0 89.33 72.38 161.686 161.684 161.686 89.29 0 161.684-72.354 161.684-161.686zM512-23.578c-39.72 0-78.308 5-115.186 14.296l21.248 73.23c1.44 5.026 2.060 10.052 2.060 14.984-0.026 9.392-2.154 18.432-5.998 26.786-3.866 8.314-9.444 16.062-17.422 22.082l-26.194 19.644c-1.724 1.28-2.642 3.262-2.654 5.442 0.014 1.47 0.404 2.774 1.308 3.976l71.654 95.528c1.32 1.9 4.448 3.504 7.6 3.462 1.818 0 3.368-0.472 4.54-1.198l23.62-14.766c1.388-0.836 3.314-2.816 4.702-5.524 1.402-2.68 2.196-5.942 2.17-8.448 0-1.32-0.188-2.4-0.418-3.178l-10.468-34.924c-1.348-4.366-1.98-8.786-1.98-13.068-0.042-10.4 3.96-20.696 11.142-28.12 7.142-7.506 17.192-11.976 27.742-12.746l58.922-4.54c1.47-0.11 2.924-0.162 4.38-0.162 10.832 0.054 21.168 2.694 30.91 6.844 9.702 4.23 18.742 9.902 26.126 18.094l26.382 29.696c12.328-14.796 22.272-26.072 27.85-32.282l30.074-33.522 30.074 33.536c28.74 32.014 172.032 196.756 172.032 296.448 0 19.644-2.952 38.59-8.204 56.562 0.606 0.014 1.146 0.068 1.792 0.068 5 0.014 11.114-0.7 16.682-1.968 5.552-1.24 10.616-3.14 13.34-4.69l42.996-23.888c0.484-8.65 0.768-17.328 0.768-26.072-0.010-260.030-211.562-471.582-471.59-471.582zM188.344 455.376l0.022 0.012 0.004 0.002zM178.512 865.698c-37.228 0-67.354-30.14-67.354-67.368 0-37.214 30.128-67.368 67.356-67.368s67.38 30.154 67.38 67.368c0.002 37.214-30.154 67.368-67.382 67.368zM178.514 771.384c-14.862-0.014-26.934 12.086-26.934 26.946s12.072 26.946 26.934 26.946c14.876 0 26.96-12.086 26.96-26.946 0.002-14.86-12.084-26.946-26.96-26.946z" />
<glyph unicode="&#xe909;" glyph-name="Group" d="M688.428 406.49l-87.164 38.74c-6.158 2.736-10.134 8.858-10.134 15.594v23.936c29.28 23.33 48.1 59.256 48.1 99.516v33.694c9.646 5.33 16.032 15.63 16.032 27.166v3.27c0 70.152-57.074 127.226-127.226 127.226h-32.064c-70.152 0-127.226-57.074-127.226-127.226v-29.67c0-10.14 4.364-19.326 11.97-25.204 1.29-0.996 2.648-1.872 4.062-2.63v-6.624c0-40.26 18.818-76.186 48.096-99.514v-23.938c0-6.736-3.978-12.858-10.134-15.594l-87.164-38.74c-28.546-12.686-46.992-41.070-46.992-72.308v-198.808c0-8.284 6.716-15 15-15s15 6.716 15 15v198.806c0 1.738 0.124 3.456 0.304 5.16l40.164-40.164c6.25-6.252 9.694-14.562 9.694-23.404v-140.4c0-8.284 6.716-15 15-15s15 6.716 15 15v140.4c0 16.854-6.562 32.698-18.48 44.616l-47.882 47.884c4.314 4.476 9.49 8.186 15.378 10.804l85.694 38.086 63.55-63.55v-218.238c0-8.284 6.716-15 15-15s15 6.716 15 15v218.236l63.55 63.55 85.692-38.084c5.888-2.618 11.064-6.328 15.378-10.806l-47.882-47.882c-11.918-11.918-18.48-27.762-18.48-44.616v-140.4c0-8.284 6.716-15 15-15s15 6.716 15 15v140.4c0 8.84 3.442 17.152 9.694 23.404l40.162 40.162c0.18-1.704 0.304-3.418 0.304-5.156v-198.808c0-8.284 6.716-15 15-15s15 6.716 15 15v198.806c-0.006 31.238-18.45 59.622-46.996 72.308zM512 381.038l-55.762 55.764c4.24 7.134 6.634 15.388 6.634 24.022v6.104c15.126-6.356 31.724-9.878 49.13-9.878s34.002 3.52 49.126 9.876v-6.102c0-8.636 2.394-16.888 6.636-24.024l-55.764-55.762zM512 487.050c-53.61-0.002-97.226 43.614-97.226 97.224v6.746c9.36 3.71 18.496 9.614 27.242 17.684 6.086 5.618 6.468 15.108 0.848 21.196-5.618 6.086-15.106 6.468-21.196 0.85-7.502-6.926-14.998-11.4-22.274-13.3-0.176-0.046-0.306-0.066-0.398-0.074-0.108 0.21-0.254 0.65-0.254 1.356v29.67c0 53.61 43.616 97.226 97.226 97.226h32.064c53.612 0 97.226-43.616 97.226-97.226v-3.27c0-0.486-0.292-0.908-0.676-0.984-89.822-17.74-134.874 15.694-150.074 30.894-5.858 5.858-15.356 5.858-21.212 0-5.858-5.858-5.858-15.356 0-21.212 46.58-46.58 114.55-47.42 155.93-42.448v-27.106c0-53.61-43.616-97.226-97.226-97.226zM270.484 488.076v32.070c0 39.132-20.336 73.58-50.978 93.404 1.892 6.070 2.88 12.428 2.88 18.822 0 34.792-28.304 63.096-63.096 63.096s-63.096-28.306-63.096-63.096c0-6.474 0.98-12.77 2.876-18.826-30.64-19.822-50.974-54.27-50.974-93.4v-32.064c0-37.894 19.066-71.402 48.096-91.486v-32.986c0-6.506-3.614-12.354-9.432-15.264l-51.882-25.94c-21.514-10.76-34.878-32.384-34.878-56.438v-130.598c0-8.284 6.716-15 15-15s15 6.716 15 15v124.11l24.436-24.436c6.25-6.252 9.694-14.562 9.694-23.404v-76.27c0-8.284 6.716-15 15-15s15 6.716 15 15v76.27c0 16.854-6.564 32.698-18.48 44.616l-34.010 34.010c-0.164 0.164-0.34 0.306-0.508 0.46 2.134 1.884 4.528 3.524 7.164 4.844l51.882 25.94c2.658 1.33 5.132 2.9 7.438 4.644l36.674-36.676v-154.11c0-8.284 6.716-15 15-15s15 6.716 15 15v154.112l36.676 36.676c2.308-1.746 4.78-3.316 7.438-4.644l14.306-7.154c2.154-1.078 4.442-1.588 6.698-1.588 5.502 0 10.8 3.040 13.428 8.294 3.706 7.41 0.702 16.42-6.708 20.124l-14.306 7.154c-5.82 2.91-9.434 8.758-9.434 15.262v32.986c29.030 20.084 48.096 53.594 48.096 91.486zM159.288 665.468c18.25 0 33.096-14.848 33.096-33.096 0-2.010-0.18-3.98-0.524-5.91-10.308 3.164-21.242 4.878-32.572 4.878-11.314 0-22.234-1.708-32.526-4.864-0.346 1.93-0.57 3.89-0.57 5.896 0 18.25 14.846 33.096 33.096 33.096zM159.288 601.338c44.77 0 81.194-36.424 81.194-81.194v-5.436c-62.45-19.12-99.668 28.386-101.258 30.468-2.61 3.478-6.6 5.654-10.936 5.962-4.336 0.304-8.596-1.282-11.67-4.356-14.318-14.318-28.342-21.224-38.47-24.558 1.11 43.812 37.068 79.114 81.14 79.114zM159.288 316.908l-34.662 34.662c1.012 3.868 1.566 7.9 1.566 12.038v18.31c10.458-3.268 21.576-5.030 33.096-5.030s22.638 1.762 33.096 5.030v-18.31c0-4.138 0.554-8.172 1.566-12.038l-34.662-34.662zM159.288 406.89c-44.77 0-81.194 36.424-81.194 81.194v3.108c11.962 2.748 29.698 9.134 48.2 24.014 6.546-6.176 15.902-13.752 27.816-20.25 14.092-7.686 33.554-14.796 57.326-14.796 9.034 0 18.7 1.050 28.918 3.462-2.326-42.704-37.794-76.732-81.066-76.732zM989.122 354.47l-83.946 41.974c-5.818 2.91-9.432 8.758-9.432 15.262v21.258c19.65 17.446 32.064 42.87 32.064 71.15v17.074c0.346 0 0.686-0.010 1.032-0.010 8.284 0 15 6.716 15 15v32.064c0 52.472-42.69 95.162-95.162 95.162h-32.064c-52.472 0-95.162-42.69-95.162-95.162v-32.064c0-8.284 6.716-15 15-15 0.124 0 0.484 0.004 1.032 0.026v-17.090c0-28.282 12.416-53.706 32.066-71.152v-21.258c0-6.506-3.614-12.354-9.434-15.262-7.41-3.704-10.414-12.714-6.708-20.124 2.628-5.256 7.926-8.296 13.428-8.296 2.254 0 4.542 0.51 6.696 1.586 2.658 1.33 5.132 2.9 7.438 4.644l36.676-36.676v-202.206c0-8.284 6.716-15 15-15s15 6.716 15 15v202.21l36.674 36.676c2.308-1.746 4.78-3.316 7.438-4.644l81.23-40.616-24.638-24.638c-11.916-11.918-18.48-27.762-18.48-44.616v-124.368c0-8.284 6.716-15 15-15s15 6.716 15 15v124.368c0 8.84 3.442 17.152 9.694 23.404l23.338 23.338c0.708-2.714 1.096-5.544 1.096-8.448v-162.662c0-8.284 6.716-15 15-15s15 6.716 15 15v162.662c0.002 24.052-13.362 45.676-34.876 56.434zM751.448 554.262v13.98h0.002c0 35.93 29.232 65.162 65.162 65.162h32.064c35.93 0 65.162-29.232 65.162-65.162v-16.662c-65.206 3.518-104.556 28.892-104.938 29.142-2.538 1.692-5.434 2.52-8.316 2.52-3.872 0-7.712-1.496-10.612-4.394-14.352-14.352-28.414-21.26-38.524-24.586zM832.646 365.004l-34.662 34.662c1.012 3.868 1.566 7.9 1.566 12.038v3.194c10.312-3.838 21.462-5.946 33.096-5.946s22.784 2.108 33.096 5.946v-3.194c0-4.138 0.552-8.17 1.566-12.038l-34.662-34.662zM832.646 438.952c-35.93 0-65.162 29.23-65.162 65.162v24.182c10.506 4.198 22.746 10.872 35.202 21.484 15.752-8.196 48.708-22.362 95.122-27.042v-18.624c0-35.93-29.232-65.162-65.162-65.162z" />
<glyph unicode="&#xe90a;" glyph-name="health" d="M877.466 757.828c-45.514 45.52-106.038 70.588-170.408 70.588-64.376 0-124.894-25.068-170.408-70.588l-19.134-19.134-19.134 19.134c-45.522 45.522-106.048 70.588-170.416 70.588-64.378 0-124.894-25.068-170.408-70.588-93.972-93.954-93.972-246.844 0-340.806l342-342c4.96-4.958 11.45-7.438 17.95-7.438s12.99 2.48 17.966 7.43l341.99 342c45.52 45.512 70.588 106.038 70.588 170.408 0 64.378-25.068 124.894-70.588 170.408zM841.558 452.92l-324.040-324.048-324.048 324.048c-74.168 74.168-74.168 194.838 0 269.008 35.926 35.926 83.688 55.712 134.5 55.712 50.802 0 98.574-19.786 134.508-55.712l37.084-37.084c9.918-9.918 25.982-9.918 35.898 0l37.084 37.084c35.932 35.926 83.698 55.712 134.508 55.712s98.582-19.786 134.508-55.712c74.168-74.168 74.168-194.838 0-269.008zM118.478 507.65h-93.090c-14.022 0-25.388-11.366-25.388-25.388s11.366-25.388 25.388-25.388h93.090c14.024 0 25.388 11.366 25.388 25.388s-11.366 25.388-25.388 25.388zM913.966 506.83h-242.984l-37.812 83.164c-2.852 6.288-9.064 10.112-16.13 9.91-6.898-0.296-12.924-4.738-15.226-11.248l-77.282-217.782-93.954 260.19c-2.32 6.424-8.286 10.832-15.122 11.154-7.312 0.338-13.194-3.512-16.106-9.698l-63.132-134.152h-209.284c-9.35 0-16.926-7.584-16.926-16.926s11.138-16.106 20.488-16.106h220.034c6.56 0 8.962 2.962 11.754 8.894l50.328 106.944 96.164-266.282c2.42-6.702 8.784-11.172 15.918-11.172 0.018 0 0.034 0 0.034 0 7.15 0.018 13.514 4.528 15.902 11.264l79.076 222.85 24.974-54.932c2.742-6.050 12.34-9.106 18.974-9.106h253.884c9.342 0 13.354 6.762 13.354 16.106s-7.582 16.926-16.926 16.926zM998.612 516.112h-76.164c-14.024 0-25.388-11.366-25.388-25.388s11.366-25.388 25.388-25.388h76.164c14.024 0 25.388 11.366 25.388 25.388s-11.366 25.388-25.388 25.388z" />
<glyph unicode="&#xe90b;" glyph-name="iconPlus" d="M36.458 411.558c-20.158 0-36.18 16.544-36.18 36.702s16.022 36.18 36.18 36.18h438.824v438.858c0.034 20.158 16.576 36.702 36.734 36.702s36.182-16.542 36.182-36.702v-438.858h438.824c20.158 0 36.702-16.022 36.702-36.18s-16.544-36.702-36.702-36.702h-438.826v-438.856c0-20.158-16.022-36.702-36.182-36.702s-36.702 16.544-36.702 36.702v438.856h-438.858z" />
<glyph unicode="&#xe90c;" glyph-name="left-chevron" d="M680.078 890.239l-69.988 69.761-510.335-512 510.335-512 69.988 69.761-440.799 442.239zM924.245 890.239l-69.988 69.761-510.335-512 510.335-512 69.988 69.761-440.799 442.239z" />
<glyph unicode="&#xe90d;" glyph-name="Minus" d="M36.2 411.572c-20.17 0-36.2 16.52-36.2 36.69s16.030 36.2 36.2 36.2h951.078c20.168 0 36.722-16.032 36.722-36.2s-16.552-36.722-36.722-36.722h-951.078z" />
<glyph unicode="&#xe90e;" glyph-name="Pin" d="M511.786 960c-226.268 0-410.46-184.192-410.46-410.46 0-25.762 2.362-51.738 7.3-77.068 0.216-1.502 1.072-6.012 2.79-13.738 6.226-27.692 15.456-54.956 27.478-80.932 44.222-104.116 141.47-264.050 354.858-435.36 5.368-4.294 11.808-6.44 18.246-6.44s12.88 2.148 18.246 6.44c213.172 171.312 310.634 331.244 354.858 435.36 12.022 25.976 21.254 53.024 27.478 80.932 1.716 7.728 2.576 12.236 2.792 13.738 4.722 25.332 7.298 51.308 7.298 77.068-0.428 226.268-184.62 410.46-410.888 410.46zM857.842 482.562c0-0.428-0.216-0.858-0.216-1.288-0.216-1.072-0.86-4.294-1.932-9.23 0-0.214 0-0.214 0-0.428-5.366-24.044-13.31-47.442-23.828-69.984-0.216-0.216-0.216-0.644-0.428-0.86-40.144-95.1-128.16-240.222-319.652-398.438-191.49 158.216-279.508 303.336-319.652 398.438-0.216 0.216-0.216 0.644-0.43 0.86-10.304 22.326-18.246 45.94-23.83 69.984 0 0.214 0 0.214 0 0.428-1.288 4.938-1.718 8.158-1.932 9.23 0 0.428-0.216 0.858-0.216 1.502-4.294 22.112-6.44 44.438-6.44 66.978 0 194.282 158.216 352.496 352.496 352.496s352.496-158.216 352.496-352.496c0-22.756-2.148-45.296-6.44-67.192zM511.786 805.65c-143.618 0-260.616-116.998-260.616-260.616s116.998-260.616 260.616-260.616 260.616 116.998 260.616 260.616-116.998 260.616-260.616 260.616zM511.786 342.38c-111.846 0-202.652 91.022-202.652 202.654s91.022 202.652 202.654 202.652 202.654-91.022 202.654-202.652-90.808-202.654-202.654-202.654z" />
<glyph unicode="&#xe90f;" glyph-name="Profile" d="M664.132 960h-553.198v-1024h802.134v775.066l-248.934 248.934zM674.134 901.734l180.668-180.668h-180.668v180.668zM145.068-29.866v955.732h494.932v-238.932h238.932v-716.8h-733.866zM588.8 328.534c9.422 0 17.068 7.63 17.068 17.068s-7.646 17.068-17.068 17.068h-290.132c-9.42 0-17.068-7.63-17.068-17.068s7.646-17.068 17.068-17.068h290.132zM759.466 448h-119.466c-9.422 0-17.068-7.63-17.068-17.068s7.646-17.068 17.068-17.068h119.466c9.422 0 17.068 7.63 17.068 17.068s-7.646 17.068-17.068 17.068zM366.932 430.932c0-9.438 7.646-17.068 17.068-17.068h170.668c9.422 0 17.068 7.63 17.068 17.068s-7.646 17.068-17.068 17.068h-170.668c-9.42 0-17.068-7.63-17.068-17.068zM286.548 443.052c-3.072-3.226-4.95-7.664-4.95-12.116 0-4.438 1.878-8.876 4.95-11.948 3.072-3.226 7.51-5.12 12.118-5.12s8.876 1.876 12.118 4.948c3.072 3.244 4.95 7.68 4.95 12.116 0 4.454-1.878 8.892-4.95 12.116-6.314 6.314-18.092 6.144-24.236 0zM662.016 357.716c-3.072-3.226-4.948-7.492-4.948-12.116 0-4.608 1.706-8.876 4.948-12.116 3.244-3.072 7.68-4.948 12.116-4.948s8.876 1.876 12.116 4.948c3.244 3.244 4.948 7.51 4.948 12.116 0 4.454-1.876 8.892-4.948 12.116-6.486 6.316-17.75 6.316-24.236 0zM747.35 357.716c-3.072-3.226-4.948-7.492-4.948-12.116 0-4.608 1.706-8.876 4.948-12.116 3.244-3.072 7.68-4.948 12.116-4.948s8.876 1.876 12.116 5.12c3.244 3.244 4.948 7.51 4.948 11.948 0 4.454-1.876 8.892-4.948 12.116-6.486 6.316-17.75 6.316-24.236 0zM392.96 274.5c-37.376-19.456-49.954-56.678-54.546-95.266-7.066 5.922-14.13 11.826-21.198 17.75-16.726 14.012-40.994-10-24.132-24.15 15.956-13.364 31.932-26.744 47.89-40.124 11.23-9.404 28.604-3.466 29.132 12.066 1.246 36.966 2.988 80.93 40.072 100.232 19.508 10.154 2.252 39.63-17.22 29.49zM622.164 207.222c-24.884 1.57-61.302-36.778-80.486-2.61-4.438 7.918-15.582 10.89-23.346 6.126-24.166-14.832-55.758-36.164-81.168-8.534-14.9 16.196-38.998-7.986-24.132-24.132 31.916-34.698 72.978-24.15 109.21-4.49 8.158-9.13 18.278-15.804 31.35-18.448 13.518-2.73 68.692 19.472 71.68 15.376 12.834-17.562 42.462-0.546 29.474 17.22-8.822 12.066-16.948 18.5-32.58 19.49zM489.234 551.032l11.502 8.176-5.87 12.834c-5.324 11.64-13.876 20.686-24.748 26.146l-36.18 18.466c16.64 10.632 28.604 26.642 35.754 47.804 11.674 7.118 19.028 19.762 19.028 33.86v11.384c0 11.554-5.018 22.324-13.55 29.782-6.094 32.394-28.058 67.43-94.55 67.43-2.61 0-5.17-0.102-7.698-0.306-8.926-0.734-21.93 0-33.058 7.474-5.17 3.482-7.818 6.178-9.114 7.834-5.41 6.878-14.49 9.284-22.596 5.974-8.090-3.328-12.834-11.418-11.844-20.122 0.512-4.386 1.246-9.506 2.356-15.086 1.434-7.168 1.52-9.234 1.468-9.778-0.138-0.598-1.126-2.714-1.912-4.42-1.194-2.56-2.662-5.718-4.386-9.932-3.702-9.028-6.4-18.86-8.038-29.338-8.346-7.474-13.278-18.142-13.278-29.526v-11.384c0-14.096 7.356-26.742 19.028-33.86 7.118-21.076 19.028-37.052 35.55-47.668l-37.616-18.55c-10.462-5.7-18.62-14.798-23.586-26.3l-5.462-12.646 11.196-8.004c32.102-22.904 69.77-35.004 108.988-35.004 39.084 0 76.63 12.014 108.612 34.764zM307.474 569.054l41.728 20.548c8.858 4.386 14.37 13.244 14.37 23.126v24.27l-10.308 4.454c-15.564 6.69-25.702 19.644-31.044 39.612l-2.44 9.096-8.994 2.798c-1.98 0.614-4.096 2.544-4.096 5.342v11.384c0 2.424 1.62 4.13 3.14 4.932l8.004 4.266 0.94 9.028c1.058 10.156 3.294 19.456 6.674 27.682 1.468 3.6 2.73 6.282 3.754 8.482 2.644 5.666 4.25 9.866 4.83 14.592 12.46-5.206 26.606-7.252 41.644-6.11 1.62 0.138 3.276 0.206 4.966 0.206 49.818 0 59.204-22.766 61.814-45.022l1.040-8.926 7.952-4.182c1.52-0.802 3.156-2.508 3.156-4.95v-11.382c0-2.798-2.132-4.726-4.096-5.342l-8.994-2.798-2.44-9.096c-5.342-19.968-15.498-32.94-31.044-39.612l-10.308-4.454v-24.37c0-9.728 5.376-18.534 14.080-22.988l41.216-21.044c-44.732-24.048-100.966-23.892-145.544 0.462z" />
<glyph unicode="&#xe910;" glyph-name="reload" d="M126.449 288.298c-78.493 189.499-6.514 404.427 160.616 511.253v-156.063h94.405v280.843h-280.843v-94.405h70.447c-56.78-50.606-101.88-113.758-131.844-186.101-52.307-126.281-52.307-265.373 0-391.656 34.224-82.623 89.557-154.997 160.019-209.298 68.302-52.633 149.462-87.447 234.708-100.676l14.477 93.289c-145.389 22.563-265.757 117.074-321.985 252.814zM984.77 252.172c52.307 126.281 52.307 265.375 0 391.656-34.224 82.623-89.557 154.997-160.021 209.296-68.3 52.636-149.462 87.45-234.708 100.678l-14.477-93.289c145.393-22.56 265.76-117.072 321.987-252.812 42.657-102.984 42.657-216.417 0-319.401-33.16-80.053-89.017-146.333-160.616-191.921v156.134h-94.405v-280.843h280.846v94.405h-70.45c56.78 50.601 101.88 113.753 131.844 186.096z" />
<glyph unicode="&#xe911;" glyph-name="right-chevron" d="M413.91 960l-69.988-69.761 440.799-442.239-440.799-442.239 69.988-69.761 510.335 512zM169.744 960l-69.988-69.761 440.799-442.239-440.799-442.239 69.988-69.761 510.335 512z" />
<glyph unicode="&#xe912;" glyph-name="up-chevron" d="M512 720.72l442.239-440.799 69.761 69.988-512 510.335-512-510.335 69.761-69.988zM0 105.744l69.761-69.988 442.239 440.799 442.239-440.799 69.761 69.988-512 510.335z" />
<glyph unicode="&#xe913;" glyph-name="floppy" d="M998.084-63.473c14.328 0 25.916 11.588 25.916 25.916v758.097c0 7.585-3.371 14.749-9.060 19.595l-250.1 213.86c-0.421 0.421-0.843 0.632-1.264 0.843-0.632 0.421-1.053 0.843-1.686 1.264-0.843 0.421-1.475 0.843-2.318 1.264-0.632 0.211-1.264 0.632-1.896 0.843-0.843 0.421-1.896 0.632-2.739 0.843-0.632 0.211-1.264 0.421-1.896 0.421-1.686 0.211-3.16 0.421-4.846 0.421h-722.278c-14.328 0-25.916-11.588-25.916-25.916v-971.957c0-14.328 11.588-25.916 25.916-25.916l972.168 0.421zM810.14-11.852h-596.28v387.898c0 7.796 6.321 13.906 13.906 13.906h568.467c7.796 0 13.906-6.321 13.906-13.906v-387.898zM340.912 908.484h381.156v-269.274c0-1.686-1.264-2.95-2.95-2.95h-375.045c-1.686 0-2.95 1.475-2.95 2.95v269.274h-0.211zM51.832 908.484h237.669v-269.274c0-30.13 24.441-54.571 54.571-54.571h375.045c30.13 0 54.571 24.441 54.571 54.571v239.144l198.479-169.824v-720.382h-110.407v387.898c0 36.24-29.498 65.528-65.528 65.528h-568.467c-36.24 0-65.528-29.498-65.528-65.528v-388.109h-110.407v920.547zM479.131 796.392h113.356v-68.688c0-14.328 11.588-25.916 25.916-25.916s25.916 11.588 25.916 25.916v94.393c0 14.328-11.588 25.916-25.916 25.916h-139.272c-14.328 0-25.916-11.588-25.916-25.916s11.799-25.705 25.916-25.705zM641.58 279.756h-259.16c-14.328 0-25.916-11.588-25.916-25.916s11.588-25.916 25.916-25.916h259.16c14.328 0 25.916 11.588 25.916 25.916s-11.588 25.916-25.916 25.916zM641.58 143.012h-259.16c-14.328 0-25.916-11.588-25.916-25.916s11.588-25.916 25.916-25.916h259.16c14.328 0 25.916 11.588 25.916 25.916s-11.588 25.916-25.916 25.916z" />
<glyph unicode="&#xe914;" glyph-name="send" d="M1023.727 769.119c0.068 0.409 0.188 0.818 0.222 1.228 0.119 1.262-0.017 2.54-0.17 3.819-0.034 0.324 0.017 0.631-0.034 0.955-0.307 1.688-0.87 3.342-1.705 4.927-0.136 0.273-0.324 0.529-0.477 0.801-0.034 0.034-0.034 0.085-0.051 0.136-0.017 0.034-0.068 0.051-0.085 0.102-0.119 0.188-0.222 0.392-0.341 0.563-1.057 1.551-2.336 2.83-3.768 3.921-0.324 0.239-0.699 0.375-1.040 0.597-1.262 0.835-2.591 1.517-4.024 1.978-0.631 0.205-1.262 0.307-1.909 0.426-1.245 0.256-2.489 0.375-3.785 0.341-0.682-0.017-1.33-0.051-2.012-0.153-0.443-0.068-0.87 0-1.313-0.102l-989.629-204.52c-7.041-1.466-12.429-7.178-13.435-14.304s2.557-14.117 8.917-17.475l283.56-149.571 49.732-275.973c-0.034-0.205 0.017-0.426 0-0.631-0.17-1.364-0.188-2.694-0.017-4.041 0.085-0.682 0.17-1.33 0.341-1.995 0.392-1.62 1.023-3.137 1.875-4.569 0.17-0.273 0.17-0.597 0.358-0.87 0.051-0.085 0.136-0.153 0.205-0.222 0.222-0.324 0.529-0.58 0.784-0.904 0.801-0.989 1.637-1.892 2.591-2.66 0.153-0.119 0.256-0.307 0.426-0.426 0.256-0.188 0.546-0.239 0.801-0.409 1.040-0.682 2.114-1.245 3.256-1.688 0.46-0.17 0.887-0.375 1.364-0.511 1.534-0.443 3.12-0.75 4.723-0.75 0.017 0 0.034 0 0.051 0v0c0 0 0 0 0 0 0.068 0 0.136 0.034 0.205 0.034 0.29-0.017 0.58-0.034 0.87-0.034 4.723 0 8.985 2.114 12.139 5.37l188.886 125.924 197.769-128.55c2.796-1.807 6.035-2.745 9.292-2.745 1.79 0 3.614 0.29 5.37 0.87 4.91 1.637 8.831 5.422 10.622 10.298l238.618 647.676c0.222 0.58 0.409 1.176 0.563 1.79 0.068 0.256 0.085 0.511 0.136 0.75 0.051 0.188 0.085 0.392 0.119 0.597zM826.265 660.295l-409.058-300.762c-0.665-0.494-1.193-1.108-1.773-1.688-0.222-0.205-0.443-0.375-0.631-0.597-0.358-0.392-0.682-0.784-1.006-1.21-0.307-0.409-0.546-0.835-0.818-1.262-0.631-1.023-1.159-2.080-1.569-3.205-0.085-0.222-0.222-0.392-0.29-0.614-0.017-0.068-0.085-0.102-0.102-0.17l-46.885-152.367-37.15 206.14 499.281 255.736zM390.56 165.617l46.476 153.51 93.054-60.49-139.529-93.020zM887.301 729.872l-579.207-296.671-241.074 127.152 820.281 169.519zM759.689 150.102l-302.416 196.558 514.097 378.012-211.681-574.57z" />
<glyph unicode="&#xe9b2;" glyph-name="social" d="M416 864c0 53.018 42.98 96 96 96s96-42.982 96-96c0-53.020-42.98-96-96-96s-96 42.98-96 96zM640 640l329.596 142.172-23.77 59.424-401.826-137.596h-64l-401.826 137.596-23.77-59.424 329.596-142.172v-256l-131.27-424.57 59.84-22.7 185.716 415.27h27.428l185.716-415.27 59.84 22.7-131.27 424.57z" />
</font>
</defs>
</svg>
